<svg width="7.000000" height="10.000000" viewBox="0 0 7 10" fill="none" xmlns="http://www.w3.org/2000/svg" xmlns:xlink="http://www.w3.org/1999/xlink">
	<desc>
			Created with Pixso.
	</desc>
	<defs/>
	<path id="icon" d="M3 7L0.5 9.5C0.223877 9.77612 -0.223877 9.77612 -0.5 9.5C-0.776123 9.22388 -0.776123 8.77612 -0.5 8.5L2.29272 5.70703C2.68335 5.31641 3.31641 5.31641 3.70703 5.70703L6.5 8.5C6.77612 8.77612 6.77612 9.22388 6.5 9.5C6.22388 9.77612 5.77612 9.77612 5.5 9.5L3 7ZM0.5 3.5L3 1L5.5 3.5C5.77612 3.77612 6.22388 3.77612 6.5 3.5C6.77612 3.22388 6.77612 2.77612 6.5 2.5L3.70703 -0.292969C3.31641 -0.683594 2.68335 -0.683594 2.29272 -0.292969L-0.5 2.5C-0.776123 2.77612 -0.776123 3.22388 -0.5 3.5C-0.223877 3.77612 0.223877 3.77612 0.5 3.5Z" clip-rule="evenodd" fill="#41F6D7" fill-opacity="1.000000" fill-rule="evenodd"/>
</svg>
